<svg width="800" height="800" viewBox="0 0 800 800" xmlns="http://www.w3.org/2000/svg">
  <rect width="800" height="800" fill="white"/>
  
  <path d="M400 150 L210 310 L210 520 L400 520 L400 310 Z" fill="#3D3D3D"/>
  <rect x="250" y="320" width="100" height="40" fill="white" transform="translate(60, 110)"/>
  
  <rect x="410" y="290" width="70" height="230" fill="#8B5E3C"/> <rect x="490" y="330" width="110" height="190" fill="#8B5E3C"/> <path d="M250 150 L250 200 L400 200 L400 150 Z" fill="#3D3D3D" transform="translate(0, 0)"/>
  
  <path d="M190 320 L400 140 L610 320 L580 345 L400 190 L220 345 Z" fill="#3D3D3D"/>
  <rect x="260" y="180" width="40" height="80" fill="#3D3D3D"/>

  <text x="400" y="600" text-anchor="middle" font-family="Arial, sans-serif" font-weight="bold" font-size="52" fill="#3D3D3D">MA ESTATE BUILDER LTD</text>
  <line x1="180" y1="630" x2="620" y2="630" stroke="#A9A9A9" stroke-width="2"/>
  <text x="400" y="670" text-anchor="middle" font-family="Arial, sans-serif" letter-spacing="4" font-size="28" fill="#8B5E3C">JOINERY &amp; CARPENTRY</text>
</svg>